<svg width="97" height="98" viewBox="0 0 97 98" fill="none" xmlns="http://www.w3.org/2000/svg">
<path d="M40.9167 24.5V24H40.4167H16.1667C13.6536 24 11.625 26.0569 11.625 28.5833V81.6667C11.625 84.1932 13.6536 86.25 16.1667 86.25H68.7083C71.2215 86.25 73.25 84.1932 73.25 81.6667V57.1667V56.6667H72.75H64.6667H64.1667V57.1667V77.0833H20.7083V33.1667H40.4167H40.9167V32.6667V24.5ZM85.375 12.25V11.75H84.875H52.5417H52.0417V12.25V20.4167V20.9167H52.5417H69.874L39.2242 51.886L38.8761 52.2377L39.2242 52.5894L44.94 58.3641L45.2954 58.7231L45.6508 58.364L76.2913 27.4025L76.2917 44.9167L76.2917 45.4167H76.7917H84.875H85.375V44.9167V12.25Z" fill="#272A2A" stroke="#272A2A"/>
</svg>
